<?xml version="1.0" standalone="no"?>
<!DOCTYPE svg PUBLIC "-//W3C//DTD SVG 20010904//EN"
 "http://www.w3.org/TR/2001/REC-SVG-20010904/DTD/svg10.dtd">
<svg version="1.0" xmlns="http://www.w3.org/2000/svg"
 width="272.000000pt" height="272.000000pt" viewBox="0 0 272.000000 272.000000"
 preserveAspectRatio="xMidYMid meet">
<metadata>
Created by potrace 1.14, written by Peter Selinger 2001-2017
</metadata>
<g transform="translate(0.000000,272.000000) scale(0.100000,-0.100000)"
fill="#000000" stroke="none">
<path d="M1553 2468 c-36 -9 -76 -55 -79 -90 -8 -97 119 -155 184 -85 72 78
-2 203 -105 175z"/>
<path d="M1123 2439 c-84 -24 -100 -148 -25 -191 51 -28 90 -22 128 17 56 60
40 141 -33 171 -18 8 -34 14 -35 13 -2 0 -17 -5 -35 -10z"/>
<path d="M1957 2319 c-39 -11 -58 -28 -74 -67 -30 -73 31 -150 110 -139 83 11
124 105 73 169 -21 28 -77 46 -109 37z"/>
<path d="M748 2263 c-91 -57 -45 -193 65 -193 39 0 96 45 98 77 4 65 -10 97
-51 118 -38 19 -78 19 -112 -2z"/>
<path d="M1523 2232 c-17 -3 -24 -12 -28 -40 -18 -115 -75 -279 -104 -297 -20
-12 -103 160 -131 272 -13 52 -14 52 -49 48 -20 -2 -52 -4 -72 -4 -42 -1 -43
-8 -14 -108 51 -175 187 -353 271 -353 63 0 160 126 207 270 32 95 48 198 33
208 -11 7 -74 9 -113 4z"/>
<path d="M1802 2133 c-78 -122 -116 -246 -115 -377 1 -118 13 -132 116 -130
123 3 287 69 393 160 l39 33 -45 45 c-25 25 -50 45 -56 46 -6 0 -36 -18 -67
-40 -30 -22 -59 -40 -63 -40 -4 0 -15 -7 -24 -15 -20 -18 -149 -67 -160 -60
-18 11 30 156 87 264 l34 64 -33 30 c-18 16 -43 38 -54 49 -21 19 -21 19 -52
-29z"/>
<path d="M913 2115 c-5 -7 -23 -29 -41 -49 -32 -36 -32 -36 -16 -69 9 -17 20
-34 24 -37 26 -20 120 -210 120 -244 0 -25 -128 13 -254 75 -43 21 -83 36 -89
32 -13 -8 -69 -70 -79 -88 -8 -13 7 -24 97 -75 87 -49 209 -81 311 -81 118 0
146 26 137 132 -9 123 -55 242 -136 351 -46 63 -62 74 -74 53z"/>
<path d="M2221 2034 c-39 -32 -49 -80 -26 -127 30 -64 115 -78 166 -28 16 16
30 37 30 45 1 9 2 22 3 29 4 28 -19 70 -48 88 -44 27 -88 24 -125 -7z"/>
<path d="M449 1942 c-21 -19 -32 -39 -35 -67 -6 -51 12 -85 56 -107 111 -54
212 104 113 176 -42 31 -99 30 -134 -2z"/>
<path d="M1301 1582 c-40 -7 -69 -32 -77 -65 -4 -18 -7 -229 -7 -469 1 -392 2
-441 17 -463 24 -36 60 -47 139 -43 53 3 72 8 90 26 21 21 22 32 25 197 2 96
6 176 10 176 4 1 80 2 170 3 138 1 162 -1 163 -14 0 -8 2 -85 3 -170 2 -173 8
-193 64 -211 47 -15 125 -13 160 5 17 9 34 29 40 45 13 36 14 894 2 927 -14
36 -55 56 -120 59 -77 4 -121 -17 -136 -64 -6 -20 -11 -100 -10 -188 l1 -153
-172 0 -173 0 0 165 c0 177 -6 205 -49 225 -28 13 -100 19 -140 12z"/>
<path d="M300 1536 c-47 -26 -67 -92 -43 -138 55 -110 222 -55 199 65 -13 67
-97 106 -156 73z"/>
<path d="M498 1452 l4 -70 121 -30 c139 -35 217 -65 217 -85 0 -18 -135 -85
-237 -116 -45 -14 -82 -29 -82 -33 -1 -5 -1 -35 -1 -67 0 -72 9 -77 93 -55
135 35 277 121 345 209 46 61 43 87 -19 146 -86 82 -237 146 -384 163 l-60 7
3 -69z"/>
<path d="M345 1126 c-37 -16 -53 -35 -65 -77 -18 -61 38 -129 106 -129 62 0
118 79 99 139 -8 27 -52 71 -70 71 -7 0 -19 2 -27 5 -7 2 -27 -2 -43 -9z"/>
<path d="M930 995 c-99 -25 -218 -86 -288 -149 l-34 -31 52 -47 c41 -38 56
-45 69 -37 9 5 43 27 76 49 70 46 159 89 198 97 22 4 27 2 27 -14 0 -50 -80
-251 -117 -294 -12 -14 -7 -22 38 -63 28 -25 54 -46 58 -46 10 0 66 95 94 160
34 79 48 143 53 240 3 72 0 91 -16 118 -19 31 -22 32 -87 31 -38 0 -93 -7
-123 -14z"/>
<path d="M520 782 c-77 -34 -96 -121 -39 -178 75 -73 199 1 173 103 -14 58
-84 97 -134 75z"/>
<path d="M830 508 c-100 -37 -86 -180 20 -203 38 -8 93 18 111 53 42 87 -41
183 -131 150z"/>
</g>
</svg>
