<svg width="169" height="56" viewBox="0 0 169 56" fill="none" xmlns="http://www.w3.org/2000/svg">
<path d="M11.649 55.4898C11.2162 55.4898 10.7938 55.4842 10.3644 55.4744C9.47485 55.4627 8.58737 55.3843 7.70926 55.24C6.89046 55.0973 6.09726 54.8318 5.35583 54.4524C4.6212 54.0761 3.95116 53.5827 3.37137 52.9911C2.78319 52.4064 2.29351 51.7283 1.92172 50.9836C1.54584 50.2341 1.2857 49.4307 1.15038 48.6015C1.00424 47.7104 0.925179 46.8094 0.913865 45.9062C0.904859 45.6031 0.893069 44.5937 0.893069 44.5937L0.893067 11.3875C0.893067 11.3875 0.905624 10.3936 0.913934 10.1016C0.924767 9.19987 1.00337 8.30026 1.14907 7.41058C1.28464 6.57904 1.54498 5.77334 1.92107 5.02137C2.29149 4.27722 2.77845 3.59862 3.36309 3.01187C3.94707 2.41955 4.61925 1.92361 5.35513 1.54211C6.09486 1.16389 6.88656 0.900316 7.7037 0.760217C8.5847 0.61441 9.47526 0.535579 10.3679 0.524387L11.6497 0.506836L157.634 0.50683L158.931 0.525086C159.816 0.535722 160.698 0.613849 161.571 0.758803C162.396 0.900659 163.196 1.16607 163.944 1.54632C165.419 2.31514 166.618 3.53149 167.375 5.02488C167.745 5.77165 168.001 6.57078 168.135 7.39514C168.283 8.29212 168.365 9.19879 168.382 10.1079C168.386 10.515 168.386 10.9523 168.386 11.3875C168.398 11.9265 168.398 12.4396 168.398 12.9569L168.398 43.0411C168.398 43.5633 168.398 44.0729 168.386 44.5866C168.386 45.0541 168.386 45.4823 168.381 45.923C168.364 46.816 168.283 47.7064 168.138 48.5874C168.005 49.4226 167.747 50.2323 167.371 50.9879C166.996 51.7245 166.51 52.3967 165.928 52.9798C165.348 53.5746 164.677 54.0709 163.94 54.4496C163.194 54.832 162.395 55.0984 161.571 55.24C160.693 55.3851 159.805 55.4635 158.916 55.4744C158.5 55.4842 158.064 55.4898 157.641 55.4898L156.101 55.4927L11.649 55.4898Z" fill="black"/>
<path d="M34.8414 28.4298C34.8567 27.23 35.1716 26.0536 35.7569 25.0101C36.3422 23.9665 37.1788 23.0898 38.1889 22.4614C37.5472 21.534 36.7007 20.7707 35.7165 20.2323C34.7323 19.6939 33.6376 19.3952 32.5194 19.3598C30.134 19.1064 27.8215 20.8042 26.6059 20.8042C25.3669 20.8042 23.4953 19.3849 21.48 19.4269C20.1764 19.4695 18.906 19.8531 17.7925 20.5403C16.679 21.2275 15.7603 22.1948 15.1261 23.3481C12.3788 28.1613 14.4281 35.2352 17.0597 39.1258C18.3764 41.031 19.9152 43.1591 21.9287 43.0836C23.8991 43.0009 24.635 41.8122 27.0134 41.8122C29.3697 41.8122 30.0601 43.0836 32.1144 43.0356C34.2287 43.0009 35.5608 41.122 36.8313 39.1988C37.7773 37.8413 38.5053 36.341 38.9882 34.7534C37.7599 34.2277 36.7117 33.3477 35.9742 32.2232C35.2368 31.0987 34.8428 29.7794 34.8414 28.4298Z" fill="white"/>
<path d="M30.959 16.8018C32.1118 15.4014 32.6797 13.6015 32.5422 11.7842C30.781 11.9714 29.1541 12.8231 27.9857 14.1698C27.4145 14.8277 26.977 15.593 26.6982 16.4221C26.4194 17.2512 26.3049 18.1278 26.3611 19.0017C27.242 19.0109 28.1135 18.8177 28.9099 18.4366C29.7064 18.0555 30.407 17.4966 30.959 16.8018Z" fill="white"/>
<path d="M59.749 38.2571L53.0252 38.2571L51.4105 43.0818L48.5625 43.0818L54.9312 25.2314L57.8902 25.2314L64.2589 43.0818L61.3624 43.0818L59.749 38.2571ZM53.7216 36.0307L59.0513 36.0307L56.4239 28.2004L56.3504 28.2004L53.7216 36.0307Z" fill="white"/>
<path d="M78.015 36.5791C78.015 40.6233 75.876 43.2217 72.6479 43.2217C71.8302 43.265 71.0169 43.0744 70.3013 42.6717C69.5856 42.269 68.9965 41.6705 68.6014 40.9448L68.5403 40.9448L68.5403 47.3909L65.9004 47.3909L65.9004 30.0712L68.4557 30.0712L68.4557 32.2358L68.5043 32.2358C68.9176 31.5135 69.5166 30.9181 70.2377 30.513C70.9588 30.1079 71.775 29.9081 72.5993 29.935C75.8634 29.935 78.015 32.546 78.015 36.5791ZM75.3016 36.5791C75.3016 33.9442 73.956 32.2119 71.9029 32.2119C69.8859 32.2119 68.5292 33.9807 68.5292 36.5791C68.5292 39.2013 69.8859 40.9574 71.9029 40.9574C73.956 40.9574 75.3016 39.2378 75.3016 36.5791Z" fill="white"/>
<path d="M92.1711 36.5791C92.1711 40.6233 90.032 43.2217 86.8039 43.2217C85.9862 43.265 85.1729 43.0744 84.4573 42.6717C83.7416 42.269 83.1525 41.6705 82.7574 40.9448L82.6963 40.9448L82.6963 47.3909L80.0564 47.3909L80.0564 30.0712L82.6117 30.0712L82.6117 32.2358L82.6602 32.2358C83.0735 31.5135 83.6726 30.9181 84.3937 30.513C85.1148 30.1079 85.9309 29.9081 86.7553 29.935C90.0195 29.935 92.1711 32.546 92.1711 36.5791ZM89.4576 36.5791C89.4576 33.9442 88.112 32.2119 86.0589 32.2119C84.0419 32.2119 82.6852 33.9807 82.6852 36.5791C82.6852 39.2013 84.0419 40.9574 86.0589 40.9574C88.112 40.9574 89.4577 39.2378 89.4577 36.5791L89.4576 36.5791Z" fill="white"/>
<path d="M101.526 38.111C101.721 39.8812 103.421 41.0435 105.743 41.0435C107.968 41.0435 109.569 39.8812 109.569 38.285C109.569 36.8995 108.603 36.0699 106.317 35.5014L104.031 34.9441C100.792 34.1523 99.288 32.6194 99.288 30.1319C99.288 27.052 101.94 24.9365 105.707 24.9365C109.434 24.9365 111.989 27.052 112.075 30.1319L109.411 30.1319C109.251 28.3505 107.796 27.2752 105.669 27.2752C103.543 27.2752 102.087 28.3632 102.087 29.9466C102.087 31.2086 103.017 31.9512 105.29 32.5197L107.234 33.0026C110.853 33.8687 112.357 35.3399 112.357 37.9509C112.357 41.2905 109.728 43.3821 105.547 43.3821C101.635 43.3821 98.9939 41.3396 98.8232 38.1109L101.526 38.111Z" fill="white"/>
<path d="M118.052 26.9912L118.052 30.0711L120.497 30.0711L120.497 32.1866L118.052 32.1866L118.052 39.3613C118.052 40.4759 118.541 40.9953 119.616 40.9953C119.907 40.9901 120.197 40.9695 120.485 40.9334L120.485 43.0363C120.001 43.1277 119.51 43.1691 119.019 43.1598C116.415 43.1598 115.399 42.1702 115.399 39.6462L115.399 32.1866L113.529 32.1866L113.529 30.0711L115.399 30.0711L115.399 26.9912L118.052 26.9912Z" fill="white"/>
<path d="M121.914 36.5781C121.914 32.4833 124.297 29.9102 128.013 29.9102C131.742 29.9102 134.114 32.4832 134.114 36.5781C134.114 40.6842 131.755 43.2461 128.013 43.2461C124.273 43.2461 121.914 40.6842 121.914 36.5781ZM131.424 36.5781C131.424 33.7692 130.152 32.1113 128.013 32.1113C125.874 32.1113 124.603 33.7818 124.603 36.5781C124.603 39.3983 125.874 41.0436 128.013 41.0436C130.152 41.0436 131.424 39.3983 131.424 36.5781L131.424 36.5781Z" fill="white"/>
<path d="M136.29 30.0711L138.808 30.0711L138.808 32.2862L138.869 32.2862C139.04 31.5944 139.44 30.983 140.003 30.5548C140.567 30.1266 141.259 29.9077 141.963 29.9349C142.267 29.9338 142.57 29.9672 142.867 30.0346L142.867 32.5333C142.483 32.4145 142.082 32.36 141.681 32.3718C141.297 32.3561 140.915 32.4245 140.56 32.5724C140.205 32.7203 139.886 32.9442 139.625 33.2286C139.364 33.5131 139.166 33.8514 139.046 34.2204C138.926 34.5893 138.887 34.9802 138.93 35.3661L138.93 43.0854L136.29 43.0854L136.29 30.0711Z" fill="white"/>
<path d="M155.04 39.2622C154.685 41.6247 152.411 43.2461 149.502 43.2461C145.761 43.2461 143.438 40.7094 143.438 36.6399C143.438 32.5577 145.773 29.9102 149.391 29.9102C152.949 29.9102 155.187 32.3836 155.187 36.3296L155.187 37.2449L146.103 37.2449L146.103 37.4063C146.061 37.8853 146.121 38.3678 146.277 38.8218C146.434 39.2758 146.684 39.691 147.011 40.0396C147.338 40.3883 147.735 40.6625 148.175 40.8441C148.615 41.0256 149.088 41.1104 149.563 41.0927C150.187 41.1518 150.813 41.0056 151.348 40.6758C151.883 40.346 152.299 39.8502 152.533 39.2621L155.04 39.2622ZM146.116 35.3779L152.546 35.3779C152.569 34.9472 152.505 34.5163 152.356 34.112C152.207 33.7078 151.978 33.339 151.681 33.0289C151.385 32.7187 151.029 32.4739 150.635 32.3097C150.241 32.1455 149.817 32.0655 149.391 32.0748C148.961 32.0722 148.535 32.1558 148.137 32.3207C147.739 32.4857 147.378 32.7287 147.073 33.0358C146.769 33.3429 146.527 33.7079 146.363 34.1099C146.199 34.5119 146.115 34.9429 146.116 35.3779L146.116 35.3779Z" fill="white"/>
<path d="M53.3829 11.7949C53.9363 11.7547 54.4917 11.8393 55.0089 12.0426C55.5261 12.2459 55.9923 12.5628 56.3739 12.9706C56.7554 13.3783 57.0427 13.8666 57.2152 14.4002C57.3877 14.9339 57.4409 15.4997 57.3711 16.0567C57.3711 18.7969 55.9076 20.372 53.3829 20.372L50.3213 20.372L50.3213 11.7949L53.3829 11.7949ZM51.6377 19.159L53.2358 19.159C53.6313 19.1829 54.0271 19.1173 54.3943 18.9669C54.7616 18.8166 55.0911 18.5852 55.3589 18.2897C55.6266 17.9942 55.8259 17.642 55.9422 17.2588C56.0585 16.8755 56.0888 16.4708 56.0311 16.0742C56.0846 15.6792 56.0512 15.277 55.9331 14.8965C55.815 14.5161 55.6153 14.1668 55.3481 13.8737C55.081 13.5805 54.7531 13.3508 54.3879 13.201C54.0227 13.0511 53.6293 12.9849 53.2358 13.007L51.6377 13.007L51.6377 19.159Z" fill="white"/>
<path d="M58.8602 17.1358C58.82 16.7104 58.8681 16.2812 59.0014 15.8758C59.1347 15.4703 59.3503 15.0975 59.6343 14.7813C59.9183 14.4651 60.2645 14.2124 60.6507 14.0395C61.0368 13.8667 61.4545 13.7773 61.8767 13.7773C62.299 13.7773 62.7166 13.8667 63.1028 14.0395C63.489 14.2124 63.8351 14.4651 64.1192 14.7813C64.4032 15.0975 64.6188 15.4703 64.7521 15.8758C64.8854 16.2812 64.9335 16.7104 64.8932 17.1358C64.9342 17.5616 64.8867 17.9914 64.7538 18.3975C64.6208 18.8036 64.4054 19.1771 64.1213 19.4939C63.8372 19.8108 63.4907 20.064 63.1042 20.2372C62.7176 20.4105 62.2995 20.5 61.8767 20.5C61.4539 20.5 61.0358 20.4105 60.6493 20.2372C60.2627 20.064 59.9163 19.8108 59.6322 19.4939C59.3481 19.1771 59.1327 18.8036 58.9997 18.3975C58.8668 17.9914 58.8192 17.5616 58.8602 17.1358ZM63.5948 17.1358C63.5948 15.7327 62.9719 14.9122 61.8788 14.9122C60.7815 14.9122 60.1642 15.7327 60.1642 17.1358C60.1642 18.5501 60.7816 19.3643 61.8788 19.3643C62.9719 19.3643 63.5948 18.5445 63.5948 17.1358L63.5948 17.1358Z" fill="white"/>
<path d="M72.9148 20.3751L71.6053 20.3751L70.2832 15.6079L70.1834 15.6079L68.8669 20.3751L67.5698 20.3751L65.8066 13.9023L67.0871 13.9023L68.2329 18.8414L68.3272 18.8414L69.6423 13.9023L70.8534 13.9023L72.1685 18.8414L72.2684 18.8414L73.4087 13.9023L74.671 13.9023L72.9148 20.3751Z" fill="white"/>
<path d="M76.1497 13.9018L77.3649 13.9018L77.3649 14.9301L77.4592 14.9301C77.6192 14.5608 77.8891 14.2512 78.2313 14.0445C78.5735 13.8377 78.9708 13.7442 79.368 13.7769C79.6793 13.7532 79.9918 13.8007 80.2824 13.9158C80.5731 14.031 80.8344 14.2108 81.047 14.442C81.2596 14.6732 81.4181 14.9498 81.5107 15.2515C81.6034 15.5531 81.6277 15.8719 81.5821 16.1843L81.5821 20.3745L80.3197 20.3745L80.3197 16.5051C80.3197 15.4649 79.873 14.9476 78.9394 14.9476C78.7281 14.9377 78.5171 14.9741 78.321 15.0543C78.1249 15.1346 77.9483 15.2568 77.8032 15.4126C77.6581 15.5684 77.548 15.7541 77.4805 15.9569C77.413 16.1598 77.3897 16.3751 77.412 16.5879L77.412 20.3746L76.1497 20.3746L76.1497 13.9018Z" fill="white"/>
<path d="M83.5935 11.374L84.8559 11.374L84.8559 20.3736L83.5935 20.3736L83.5935 11.374Z" fill="white"/>
<path d="M86.6151 17.1359C86.5749 16.7105 86.623 16.2813 86.7563 15.8758C86.8897 15.4703 87.1053 15.0975 87.3893 14.7813C87.6734 14.4651 88.0196 14.2124 88.4058 14.0395C88.792 13.8667 89.2096 13.7773 89.6319 13.7773C90.0542 13.7773 90.4719 13.8667 90.8581 14.0395C91.2443 14.2124 91.5905 14.4651 91.8745 14.7813C92.1586 15.0975 92.3742 15.4703 92.5075 15.8758C92.6409 16.2813 92.689 16.7105 92.6488 17.1359C92.6897 17.5617 92.6422 17.9915 92.5092 18.3976C92.3762 18.8037 92.1607 19.1772 91.8766 19.494C91.5925 19.8108 91.246 20.064 90.8594 20.2372C90.4728 20.4105 90.0547 20.5 89.6319 20.5C89.2091 20.5 88.791 20.4105 88.4045 20.2372C88.0179 20.064 87.6714 19.8108 87.3873 19.494C87.1032 19.1772 86.8877 18.8037 86.7547 18.3976C86.6217 17.9915 86.5741 17.5617 86.6151 17.1359ZM91.3496 17.1359C91.3496 15.7328 90.7268 14.9123 89.6337 14.9123C88.5364 14.9123 87.9191 15.7328 87.9191 17.1359C87.9191 18.5502 88.5364 19.3644 89.6337 19.3644C90.7268 19.3643 91.3497 18.5445 91.3497 17.1359L91.3496 17.1359Z" fill="white"/>
<path d="M93.9773 18.5445C93.9773 17.3794 94.8346 16.7077 96.3564 16.6122L98.089 16.5112L98.089 15.9525C98.089 15.2688 97.6423 14.8828 96.7795 14.8828C96.0748 14.8828 95.5865 15.1446 95.4464 15.6022L94.2242 15.6022C94.3532 14.4905 95.3867 13.7773 96.8377 13.7773C98.4414 13.7773 99.3458 14.5852 99.3458 15.9525L99.3458 20.3751L98.1306 20.3751L98.1306 19.4654L98.0308 19.4654C97.828 19.7917 97.5433 20.0577 97.2058 20.2363C96.8683 20.4148 96.4899 20.4995 96.1095 20.4817C95.8409 20.51 95.5695 20.481 95.3128 20.3966C95.056 20.3122 94.8195 20.1743 94.6186 19.9918C94.4178 19.8093 94.2569 19.5862 94.1464 19.3369C94.036 19.0877 93.9784 18.8177 93.9773 18.5445ZM98.089 17.9914L98.089 17.4503L96.527 17.5514C95.6461 17.611 95.2466 17.9142 95.2466 18.4849C95.2466 19.0674 95.746 19.4064 96.4327 19.4064C96.6339 19.4271 96.8372 19.4065 97.0304 19.346C97.2236 19.2855 97.4028 19.1863 97.5573 19.0543C97.7118 18.9222 97.8385 18.7601 97.9299 18.5775C98.0212 18.3949 98.0753 18.1956 98.089 17.9914Z" fill="white"/>
<path d="M101.004 17.1345C101.004 15.0892 102.043 13.7935 103.66 13.7935C104.059 13.7748 104.456 13.8717 104.803 14.0728C105.151 14.2739 105.434 14.5709 105.621 14.9291L105.715 14.9291L105.715 11.374L106.978 11.374L106.978 20.3737L105.768 20.3737L105.768 19.351L105.668 19.351C105.467 19.7068 105.174 20.0001 104.82 20.1991C104.465 20.3982 104.064 20.4955 103.66 20.4804C102.032 20.4804 101.004 19.1847 101.004 17.1345ZM102.308 17.1345C102.308 18.5074 102.948 19.3335 104.017 19.3335C105.081 19.3335 105.739 18.4955 105.739 17.1401C105.739 15.7911 105.075 14.9411 104.017 14.9411C102.955 14.9411 102.308 15.7728 102.308 17.1345L102.308 17.1345Z" fill="white"/>
<path d="M112.202 17.1358C112.162 16.7104 112.21 16.2812 112.343 15.8758C112.476 15.4703 112.692 15.0975 112.976 14.7813C113.26 14.4651 113.606 14.2124 113.992 14.0395C114.379 13.8667 114.796 13.7773 115.219 13.7773C115.641 13.7773 116.058 13.8667 116.445 14.0395C116.831 14.2124 117.177 14.4651 117.461 14.7813C117.745 15.0975 117.961 15.4703 118.094 15.8758C118.227 16.2812 118.275 16.7104 118.235 17.1358C118.276 17.5616 118.228 17.9914 118.096 18.3975C117.963 18.8036 117.747 19.1771 117.463 19.4939C117.179 19.8108 116.833 20.064 116.446 20.2372C116.059 20.4105 115.641 20.5 115.219 20.5C114.796 20.5 114.378 20.4105 113.991 20.2372C113.605 20.064 113.258 19.8108 112.974 19.4939C112.69 19.1771 112.474 18.8036 112.341 18.3975C112.209 17.9914 112.161 17.5616 112.202 17.1358ZM116.937 17.1358C116.937 15.7327 116.314 14.9122 115.221 14.9122C114.123 14.9122 113.506 15.7327 113.506 17.1358C113.506 18.5501 114.123 19.3643 115.221 19.3643C116.314 19.3643 116.937 18.5445 116.937 17.1358Z" fill="white"/>
<path d="M119.927 13.9018L121.142 13.9018L121.142 14.9301L121.236 14.9301C121.396 14.5608 121.666 14.2512 122.008 14.0445C122.35 13.8377 122.748 13.7442 123.145 13.7769C123.456 13.7532 123.769 13.8007 124.059 13.9158C124.35 14.031 124.611 14.2108 124.824 14.442C125.036 14.6732 125.195 14.9498 125.288 15.2515C125.38 15.5531 125.405 15.8719 125.359 16.1843L125.359 20.3745L124.097 20.3745L124.097 16.5051C124.097 15.4649 123.65 14.9476 122.716 14.9476C122.505 14.9377 122.294 14.9741 122.098 15.0543C121.902 15.1346 121.725 15.2568 121.58 15.4126C121.435 15.5684 121.325 15.7541 121.257 15.9569C121.19 16.1598 121.167 16.3751 121.189 16.5879L121.189 20.3746L119.927 20.3746L119.927 13.9018Z" fill="white"/>
<path d="M132.489 12.29L132.489 13.9311L133.875 13.9311L133.875 15.0071L132.489 15.0071L132.489 18.3354C132.489 19.0135 132.765 19.3104 133.393 19.3104C133.554 19.3098 133.715 19.3 133.875 19.2809L133.875 20.3449C133.648 20.386 133.418 20.4078 133.188 20.4102C131.784 20.4102 131.225 19.9105 131.225 18.6625L131.225 15.007L130.209 15.007L130.209 13.931L131.225 13.931L131.225 12.29L132.489 12.29Z" fill="white"/>
<path d="M135.6 11.374L136.851 11.374L136.851 14.941L136.951 14.941C137.119 14.5683 137.396 14.2569 137.745 14.0494C138.094 13.8419 138.498 13.7484 138.901 13.7815C139.211 13.7645 139.52 13.8168 139.808 13.9347C140.095 14.0526 140.353 14.2333 140.563 14.4638C140.774 14.6942 140.931 14.9689 141.025 15.2681C141.118 15.5673 141.145 15.8836 141.104 16.1946L141.104 20.3737L139.84 20.3737L139.84 16.5097C139.84 15.4759 139.364 14.9522 138.473 14.9522C138.256 14.9342 138.037 14.9644 137.833 15.0407C137.629 15.1169 137.444 15.2374 137.29 15.3938C137.137 15.5501 137.019 15.7384 136.945 15.9456C136.871 16.1528 136.843 16.3738 136.862 16.5933L136.862 20.3736L135.6 20.3736L135.6 11.374Z" fill="white"/>
<path d="M148.467 18.6275C148.296 19.219 147.924 19.7307 147.418 20.0731C146.911 20.4154 146.301 20.5666 145.696 20.5001C145.274 20.5113 144.855 20.4297 144.468 20.2607C144.081 20.0918 143.735 19.8396 143.454 19.5217C143.173 19.2039 142.963 18.8279 142.84 18.4199C142.717 18.0119 142.683 17.5817 142.741 17.1591C142.685 16.7352 142.719 16.3041 142.842 15.8949C142.965 15.4857 143.173 15.108 143.453 14.7873C143.733 14.4667 144.077 14.2105 144.463 14.0363C144.849 13.8621 145.267 13.7738 145.69 13.7775C147.47 13.7775 148.544 15.0079 148.544 17.0405L148.544 17.4862L144.027 17.4862L144.027 17.5578C144.007 17.7953 144.037 18.0344 144.113 18.2598C144.19 18.4851 144.313 18.6917 144.473 18.8662C144.634 19.0408 144.828 19.1796 145.045 19.2736C145.261 19.3676 145.495 19.4148 145.73 19.4121C146.032 19.4488 146.338 19.3938 146.609 19.2541C146.88 19.1143 147.104 18.8962 147.252 18.6274L148.467 18.6275ZM144.027 16.5415L147.258 16.5415C147.274 16.3242 147.244 16.106 147.172 15.9009C147.1 15.6957 146.986 15.5082 146.837 15.3502C146.689 15.1923 146.51 15.0675 146.311 14.9839C146.112 14.9003 145.898 14.8597 145.683 14.8647C145.465 14.8619 145.248 14.9034 145.046 14.9867C144.844 15.07 144.66 15.1934 144.506 15.3497C144.351 15.5059 144.229 15.6919 144.147 15.8966C144.065 16.1013 144.024 16.3205 144.027 16.5415L144.027 16.5415Z" fill="white"/>
</svg>
