<svg width="184" height="56" viewBox="0 0 184 56" fill="none" xmlns="http://www.w3.org/2000/svg">
<path d="M176.951 55.4218L7.36524 55.4218C3.56651 55.4218 0.58179 52.4015 0.58179 48.5575L0.581787 7.37121C0.581787 3.52716 3.5665 0.506836 7.36523 0.506836L176.951 0.506829C180.75 0.506829 183.735 3.52715 183.735 7.3712L183.735 48.5575C183.735 52.2642 180.75 55.4218 176.951 55.4218Z" fill="black"/>
<path d="M64.8896 14.511C64.8896 15.6093 64.6183 16.5703 63.9399 17.2567C63.1259 18.0804 62.1762 18.4923 60.9552 18.4923C59.7342 18.4923 58.7845 18.0804 57.9705 17.2567C57.1565 16.433 56.7495 15.472 56.7495 14.2364C56.7495 13.0008 57.1565 12.0398 57.9705 11.2161C58.7845 10.3923 59.7342 9.98047 60.9552 9.98047C61.4979 9.98047 62.0406 10.1178 62.5832 10.3923C63.1259 10.6669 63.5329 10.9415 63.8043 11.3533L63.1259 12.0398C62.5832 11.3533 61.9049 11.0788 60.9552 11.0788C60.1412 11.0788 59.3272 11.3533 58.7845 12.0398C58.1062 12.5889 57.8349 13.4127 57.8349 14.3737C57.8349 15.3347 58.1062 16.1584 58.7845 16.7075C59.4629 17.2567 60.1412 17.6686 60.9552 17.6686C61.9049 17.6686 62.5832 17.394 63.2616 16.7075C63.6686 16.2957 63.9399 15.7465 63.9399 15.0601L60.9552 15.0601L60.9552 14.0991L64.8896 14.0991C64.8896 14.0991 64.8896 14.3737 64.8896 14.511Z" fill="white" stroke="white" stroke-width="0.19416" stroke-miterlimit="10"/>
<path d="M71.13 11.0763L67.467 11.0763L67.467 13.6847L70.8587 13.6847L70.8587 14.6457L67.467 14.6457L67.467 17.2542L71.13 17.2542L71.13 18.3525L66.3816 18.3525L66.3816 10.1152L71.13 10.1152L71.13 11.0763Z" fill="white" stroke="white" stroke-width="0.19416" stroke-miterlimit="10"/>
<path d="M75.6064 18.3525L74.521 18.3525L74.521 11.0763L72.2146 11.0763L72.2146 10.1152L77.9128 10.1152L77.9128 11.0763L75.6064 11.0763L75.6064 18.3525Z" fill="white" stroke="white" stroke-width="0.19416" stroke-miterlimit="10"/>
<path d="M81.8467 18.3525L81.8467 10.1152L82.932 10.1152L82.932 18.3525L81.8467 18.3525Z" fill="white" stroke="white" stroke-width="0.19416" stroke-miterlimit="10"/>
<path d="M87.5474 18.3525L86.4621 18.3525L86.4621 11.0763L84.1558 11.0763L84.1558 10.1152L89.7181 10.1152L89.7181 11.0763L87.4118 11.0763L87.4118 18.3525L87.5474 18.3525Z" fill="white" stroke="white" stroke-width="0.19416" stroke-miterlimit="10"/>
<path d="M100.434 17.2557C99.6196 18.0794 98.6699 18.4912 97.4489 18.4912C96.2279 18.4912 95.2782 18.0794 94.4642 17.2557C93.6502 16.432 93.2432 15.4709 93.2432 14.2354C93.2432 12.9998 93.6502 12.0388 94.4642 11.2151C95.2782 10.3914 96.2279 9.97949 97.4489 9.97949C98.6699 9.97949 99.6196 10.3914 100.434 11.2151C101.248 12.0388 101.655 12.9998 101.655 14.2354C101.655 15.4709 101.248 16.432 100.434 17.2557ZM95.2782 16.5692C95.8209 17.1184 96.6349 17.5302 97.4489 17.5302C98.2629 17.5302 99.0769 17.2557 99.6196 16.5692C100.162 16.0201 100.569 15.1964 100.569 14.2354C100.569 13.2744 100.298 12.4506 99.6196 11.9015C99.0769 11.3524 98.2629 10.9405 97.4489 10.9405C96.6349 10.9405 95.8209 11.2151 95.2782 11.9015C94.7355 12.4506 94.3285 13.2744 94.3285 14.2354C94.3285 15.1964 94.5998 16.0201 95.2782 16.5692Z" fill="white" stroke="white" stroke-width="0.19416" stroke-miterlimit="10"/>
<path d="M103.151 18.3525L103.151 10.1152L104.372 10.1152L108.306 16.5678L108.306 14.9203L108.306 10.1152L109.392 10.1152L109.392 18.3525L108.306 18.3525L104.101 11.6254L104.101 13.2729L104.101 18.3525L103.151 18.3525Z" fill="white" stroke="white" stroke-width="0.19416" stroke-miterlimit="10"/>
<path d="M92.9707 30.4359C89.7146 30.4359 87.1369 32.907 87.1369 36.3392C87.1369 39.6341 89.7146 42.2426 92.9707 42.2426C96.2267 42.2426 98.8044 39.7714 98.8044 36.3392C98.8044 32.7698 96.2267 30.4359 92.9707 30.4359ZM92.9707 39.7714C91.207 39.7714 89.7146 38.2612 89.7146 36.2019C89.7146 34.1426 91.207 32.6325 92.9707 32.6325C94.7344 32.6325 96.2267 34.0053 96.2267 36.2019C96.2267 38.2612 94.7344 39.7714 92.9707 39.7714ZM80.3535 30.4359C77.0974 30.4359 74.5197 32.907 74.5197 36.3392C74.5197 39.6341 77.0974 42.2426 80.3535 42.2426C83.6095 42.2426 86.1872 39.7714 86.1872 36.3392C86.1872 32.7698 83.6095 30.4359 80.3535 30.4359ZM80.3535 39.7714C78.5898 39.7714 77.0974 38.2612 77.0974 36.2019C77.0974 34.1426 78.5898 32.6325 80.3535 32.6325C82.1172 32.6325 83.6095 34.0053 83.6095 36.2019C83.6095 38.2612 82.1172 39.7714 80.3535 39.7714ZM65.2942 32.2206L65.2942 34.6918L71.128 34.6918C70.9923 36.0646 70.4497 37.1629 69.7713 37.8494C68.9573 38.6731 67.6006 39.6341 65.2942 39.6341C61.6312 39.6341 58.9178 36.7511 58.9178 33.0443C58.9178 29.3376 61.7668 26.4546 65.2942 26.4546C67.1936 26.4546 68.686 27.2783 69.7713 28.2393L71.535 26.4546C70.0426 25.0817 68.1433 23.9834 65.4299 23.9834C60.5458 23.9834 56.3401 28.102 56.3401 33.0443C56.3401 37.9867 60.5458 42.1053 65.4299 42.1053C68.1433 42.1053 70.0426 41.2816 71.6707 39.4968C73.2987 37.8494 73.8414 35.5155 73.8414 33.7308C73.8414 33.1816 73.8414 32.6325 73.7057 32.2206L65.2942 32.2206ZM126.888 34.1426C126.345 32.7698 124.989 30.4359 122.004 30.4359C119.019 30.4359 116.577 32.7698 116.577 36.3392C116.577 39.6341 119.019 42.2426 122.275 42.2426C124.853 42.2426 126.481 40.5951 127.024 39.6341L125.124 38.2612C124.446 39.2222 123.632 39.9087 122.275 39.9087C120.918 39.9087 120.104 39.3595 119.426 38.1239L127.159 34.8291L126.888 34.1426ZM119.019 36.0646C119.019 33.8681 120.783 32.6325 122.004 32.6325C122.953 32.6325 123.903 33.1816 124.175 33.8681L119.019 36.0646ZM112.643 41.6934L115.22 41.6934L115.22 24.5325L112.643 24.5325L112.643 41.6934ZM108.573 31.6715C107.894 30.985 106.809 30.2986 105.452 30.2986C102.603 30.2986 99.8898 32.907 99.8898 36.2019C99.8898 39.4968 102.468 41.968 105.452 41.968C106.809 41.968 107.894 41.2815 108.437 40.5951L108.573 40.5951L108.573 41.4188C108.573 43.6154 107.352 44.851 105.452 44.851C103.96 44.851 102.875 43.7527 102.603 42.7917L100.432 43.7527C101.111 45.2629 102.739 47.1849 105.588 47.1849C108.573 47.1849 111.015 45.4002 111.015 41.1443L111.015 30.7105L108.573 30.7105L108.573 31.6715ZM105.588 39.7714C103.824 39.7714 102.332 38.2612 102.332 36.2019C102.332 34.1426 103.824 32.6325 105.588 32.6325C107.352 32.6325 108.708 34.1426 108.708 36.2019C108.708 38.2612 107.352 39.7714 105.588 39.7714ZM138.691 24.5325L132.586 24.5325L132.586 41.6934L135.164 41.6934L135.164 35.2409L138.691 35.2409C141.54 35.2409 144.254 33.1816 144.254 29.8867C144.254 26.5918 141.54 24.5325 138.691 24.5325ZM138.827 32.7698L135.164 32.7698L135.164 26.8664L138.827 26.8664C140.726 26.8664 141.811 28.5139 141.811 29.7494C141.676 31.2596 140.59 32.7698 138.827 32.7698ZM154.429 30.2986C152.529 30.2986 150.63 31.1223 149.952 32.907L152.258 33.8681C152.801 32.907 153.615 32.6325 154.564 32.6325C155.921 32.6325 157.142 33.4562 157.278 34.8291L157.278 34.9663C156.871 34.6918 155.785 34.2799 154.7 34.2799C152.258 34.2799 149.816 35.6528 149.816 38.1239C149.816 40.4578 151.851 41.968 154.022 41.968C155.785 41.968 156.599 41.1443 157.278 40.3205L157.413 40.3205L157.413 41.6934L159.855 41.6934L159.855 35.1036C159.584 32.0833 157.278 30.2986 154.429 30.2986ZM154.157 39.7714C153.343 39.7714 152.122 39.3595 152.122 38.2612C152.122 36.8884 153.615 36.4765 154.836 36.4765C155.921 36.4765 156.464 36.7511 157.142 37.0256C156.871 38.6731 155.514 39.7714 154.157 39.7714ZM168.403 30.7105L165.554 38.1239L165.418 38.1239L162.433 30.7105L159.72 30.7105L164.197 41.1443L161.619 46.9103L164.197 46.9103L171.116 30.7105L168.403 30.7105ZM145.61 41.6934L148.188 41.6934L148.188 24.5325L145.61 24.5325L145.61 41.6934Z" fill="white"/>
<path d="M14.692 10.8008C14.285 11.2126 14.0137 11.8991 14.0137 12.7228L14.0137 43.0634C14.0137 43.8871 14.285 44.5736 14.692 44.9854L14.8277 45.1227L31.6507 28.099L31.6507 27.9617L31.6507 27.8245L14.692 10.8008Z" fill="url(#paint0_linear_448_4390)"/>
<path d="M37.2162 33.8677L31.6538 28.2389L31.6538 27.9643L31.6538 27.8271L37.2162 22.1982L37.3519 22.3355L43.9997 26.1796C45.899 27.2779 45.899 29.0626 43.9997 30.161L37.2162 33.8677Z" fill="url(#paint1_linear_448_4390)"/>
<path d="M37.348 33.73L31.6498 27.9639L14.6912 45.1248C15.3695 45.8113 16.3192 45.8113 17.5402 45.2621L37.348 33.73Z" fill="url(#paint2_linear_448_4390)"/>
<path d="M37.348 22.1987L17.5402 10.8038C16.3192 10.1174 15.3695 10.2547 14.6912 10.9411L31.6498 27.9648L37.348 22.1987Z" fill="url(#paint3_linear_448_4390)"/>
<path opacity="0.2" d="M37.2133 33.5908L17.5414 44.8484C16.4561 45.5349 15.5064 45.3976 14.8281 44.8484L14.6924 44.9857L14.8281 45.123C15.5064 45.6721 16.4561 45.8094 17.5414 45.123L37.2133 33.5908Z" fill="black"/>
<path opacity="0.12" d="M14.6916 44.8488C14.2846 44.4369 14.1489 43.7505 14.1489 42.9268L14.1489 43.064C14.1489 43.8878 14.4203 44.5742 14.8273 44.9861L14.8273 44.8488L14.6916 44.8488Z" fill="black"/>
<path opacity="0.12" d="M44.0009 29.7486L37.2175 33.5927L37.3532 33.73L44.0009 29.8859C44.9506 29.3368 45.3576 28.6503 45.3576 27.9639C45.3576 28.6503 44.815 29.1995 44.0009 29.7486Z" fill="black"/>
<path opacity="0.25" d="M17.5394 10.9393L43.995 26.1783C44.809 26.7274 45.3517 27.2766 45.3517 27.963C45.3517 27.2766 44.9447 26.5901 43.995 26.041L17.5394 10.802C15.6401 9.70375 14.1477 10.6648 14.1477 12.8614L14.1477 12.9986C14.1477 10.802 15.6401 9.84103 17.5394 10.9393Z" fill="white"/>
<defs>
<linearGradient id="paint0_linear_448_4390" x1="30.1579" y1="12.4615" x2="7.11936" y2="35.2285" gradientUnits="userSpaceOnUse">
<stop stop-color="#00A0FF"/>
<stop offset="0.00657445" stop-color="#00A1FF"/>
<stop offset="0.2601" stop-color="#00BEFF"/>
<stop offset="0.5122" stop-color="#00D2FF"/>
<stop offset="0.7604" stop-color="#00DFFF"/>
<stop offset="1" stop-color="#00E3FF"/>
</linearGradient>
<linearGradient id="paint1_linear_448_4390" x1="46.4884" y1="27.9664" x2="13.6608" y2="27.9664" gradientUnits="userSpaceOnUse">
<stop stop-color="#FFE000"/>
<stop offset="0.4087" stop-color="#FFBD00"/>
<stop offset="0.7754" stop-color="#FFA500"/>
<stop offset="1" stop-color="#FF9C00"/>
</linearGradient>
<linearGradient id="paint2_linear_448_4390" x1="34.2642" y1="31.1161" x2="3.02204" y2="61.99" gradientUnits="userSpaceOnUse">
<stop stop-color="#FF3A44"/>
<stop offset="1" stop-color="#C31162"/>
</linearGradient>
<linearGradient id="paint3_linear_448_4390" x1="10.4817" y1="0.749159" x2="24.4328" y2="14.5356" gradientUnits="userSpaceOnUse">
<stop stop-color="#32A071"/>
<stop offset="0.0685" stop-color="#2DA771"/>
<stop offset="0.4762" stop-color="#15CF74"/>
<stop offset="0.8009" stop-color="#06E775"/>
<stop offset="1" stop-color="#00F076"/>
</linearGradient>
</defs>
</svg>
