<svg xmlns="http://www.w3.org/2000/svg" xmlns:xlink="http://www.w3.org/1999/xlink" id="Layer_1" x="0px" y="0px" viewBox="0 0 60 60" style="enable-background:new 0 0 60 60;" xml:space="preserve"><style type="text/css">	.st0{opacity:0.37;fill:#4C184E;}	.st1{opacity:0.8;fill:#DFD7E1;}	.st2{fill:#5E2D61;}	.st3{clip-path:url(#SVGID_00000041265232038131681150000004523008089427948192_);}	.st4{fill:#FFFFFF;}	.st5{opacity:0.19;fill:#4C184E;}	.st6{fill:#323031;}</style><circle class="st5" cx="30" cy="30" r="30"></circle><g>	<path class="st2" d="M33.9,37.1c-0.1-0.6-0.4-1.1-0.9-1.4l-3.7-2.9c-0.2-0.2-0.5-0.1-0.7,0.1c-0.2,0.2-0.1,0.5,0.1,0.7l3.7,2.9  c0.3,0.2,0.5,0.5,0.6,0.9l1.8,7.9c0.2,0.8-0.3,1.6-1.1,1.8c-0.1,0-0.2,0-0.3,0c-0.7,0-1.3-0.5-1.5-1.2l-1.6-7.2  c0-0.1-0.1-0.2-0.2-0.3l-4.3-3.3c0,0,0,0,0,0c-0.5-0.4-1.1-1.1-1.1-1.9v-9c0-1.3,1.1-2.4,2.4-2.4c0.9,0,1.8,0.6,2.2,1.5  c0,0,0,0,0,0c0,0,0,0,0,0l2,4.3c0.1,0.2,0.2,0.3,0.4,0.3l4.5,0.1c0,0,0,0,0,0c0.6,0,1.1,0.5,1.1,1.1c0,0.6-0.5,1.1-1.1,1.1  c0,0,0,0,0,0L30.6,30c0,0,0,0,0,0c-0.4,0-0.8-0.3-1-0.6l-2-4.5c-0.1-0.2-0.4-0.3-0.6-0.2c-0.2,0.1-0.3,0.4-0.2,0.6l2,4.5  c0.2,0.3,0.4,0.6,0.7,0.8c0.3,0.2,0.7,0.3,1.1,0.3c0,0,0,0,0,0l5.5,0.1c0,0,0,0,0,0c1.1,0,2-0.9,2-2c0-0.5-0.2-1-0.6-1.4  c-0.4-0.4-0.9-0.6-1.4-0.6c0,0,0,0,0,0l-4.2-0.1l-1.8-4c0,0,0,0,0,0c0,0,0,0,0,0c-0.3-0.6-0.7-1.1-1.2-1.5  c-0.6-0.4-1.2-0.6-1.9-0.6c-1.8,0-3.3,1.5-3.3,3.3v9c0,0.5,0.1,1,0.4,1.5c0.2,0.4,0.6,0.8,1,1.1c0,0,0,0,0,0l4.2,3.3l1.6,7  c0.1,0.5,0.4,1,0.9,1.4c0.4,0.3,1,0.5,1.5,0.5c0.2,0,0.4,0,0.5-0.1c1.3-0.3,2.1-1.6,1.8-2.9L33.9,37.1z"></path>	<path class="st2" d="M27,38.9c-0.2-0.1-0.5,0.1-0.6,0.3l-0.3,1.1c-0.1,0.3-0.3,0.6-0.6,0.8l-6.6,4c-0.2,0.1-0.5,0.2-0.8,0.2  c-0.5,0-1-0.3-1.3-0.7c-0.2-0.3-0.3-0.7-0.2-1.1c0.1-0.4,0.3-0.7,0.7-0.9l6-3.6c0.1-0.1,0.2-0.1,0.2-0.3L24,37  c0.1-0.2-0.1-0.5-0.3-0.6c-0.2-0.1-0.5,0.1-0.6,0.3l-0.5,1.5l-5.8,3.6c-0.6,0.3-0.9,0.9-1.1,1.5c-0.2,0.6,0,1.3,0.3,1.8  c0.2,0.4,0.5,0.7,0.9,0.9c0.4,0.2,0.8,0.3,1.2,0.3c0.4,0,0.9-0.1,1.3-0.4l6.6-4c0.5-0.3,0.9-0.8,1-1.3c0,0,0,0,0,0l0.3-1.1  C27.4,39.2,27.3,39,27,38.9z"></path>	<path class="st2" d="M28.4,20.3c1.1,0,2.1-0.4,2.9-1.2c0.8-0.8,1.2-1.8,1.2-2.9c0-1.1-0.4-2.1-1.2-2.9c-0.8-0.8-1.8-1.2-2.9-1.2  c-1.1,0-2.1,0.4-2.9,1.2c-0.8,0.8-1.2,1.8-1.2,2.9c0,1.1,0.4,2.1,1.2,2.9C26.2,19.9,27.3,20.3,28.4,20.3z M28.4,13  c1.8,0,3.2,1.4,3.2,3.2c0,1.8-1.4,3.2-3.2,3.2c-1.8,0-3.2-1.4-3.2-3.2C25.2,14.4,26.6,13,28.4,13z"></path>	<path class="st2" d="M43.9,20.8H33.3c-0.1,0-0.2,0-0.3,0.1c-0.1,0.1-0.1,0.2-0.1,0.3l0,3.3c0,0.3,0.2,0.5,0.5,0.5c0,0,0,0,0,0  c0.3,0,0.5-0.2,0.5-0.5l0-2.8h9.6v11.1h-9.6l0-0.3c0-0.3-0.2-0.5-0.5-0.5c0,0,0,0,0,0c-0.3,0-0.5,0.2-0.5,0.5l0,0.7  c0,0.1,0,0.2,0.1,0.3c0.1,0.1,0.2,0.1,0.3,0.1h10.5c0.3,0,0.5-0.2,0.5-0.5v-12C44.3,21,44.1,20.8,43.9,20.8z"></path>	<path class="st2" d="M39.6,24.2c0.3,0,0.5-0.2,0.5-0.5c0-0.3-0.2-0.5-0.5-0.5h-1.9c-0.3,0-0.5,0.2-0.5,0.5c0,0.3,0.2,0.5,0.5,0.5  H39.6z"></path></g></svg>